<svg width="802" height="528" viewBox="0 0 802 528" fill="none" xmlns="http://www.w3.org/2000/svg">
<g opacity="0.2">
<path opacity="0.2" d="M277.624 485.338C278.027 486.96 278.562 488.548 279.225 490.086C289.528 486.11 299.945 482.298 310.475 478.652C310.386 478.222 310.297 477.771 310.186 477.327C309.125 472.745 306.861 468.516 303.619 465.062C299.408 460.693 293.983 458.581 288.705 459.87C283.428 461.159 279.596 465.572 277.846 471.377C276.538 475.932 276.462 480.744 277.624 485.338Z" fill="#3F3D56"/>
<path opacity="0.2" d="M292.427 476.65C301.473 474.665 306.614 463.417 303.911 451.527C301.208 439.637 291.685 431.607 282.64 433.592C273.595 435.577 268.453 446.825 271.156 458.715C273.859 470.605 283.382 478.635 292.427 476.65Z" fill="#3F3D56"/>
<path opacity="0.2" d="M286.08 450.42C295.125 448.435 300.267 437.187 297.564 425.297C294.861 413.407 285.338 405.377 276.293 407.362C267.247 409.347 262.106 420.595 264.809 432.485C267.511 444.375 277.035 452.405 286.08 450.42Z" fill="#3F3D56"/>
<path opacity="0.2" d="M279.72 424.207C288.765 422.222 293.907 410.974 291.204 399.084C288.501 387.193 278.978 379.164 269.932 381.148C260.887 383.133 255.746 394.381 258.448 406.271C261.151 418.162 270.675 426.191 279.72 424.207Z" fill="#3F3D56"/>
<path opacity="0.2" d="M273.36 397.986C282.405 396.001 287.546 384.753 284.844 372.863C282.141 360.972 272.617 352.943 263.572 354.927C254.527 356.912 249.385 368.16 252.088 380.05C254.791 391.941 264.315 399.97 273.36 397.986Z" fill="#3F3D56"/>
<path opacity="0.2" d="M285.918 182.025C287.46 178.626 288.763 175.127 289.817 171.553L245.344 174.99L291.7 163.971C293.915 152.517 293.634 140.732 290.877 129.393C288.459 119.354 284.126 109.857 278.106 101.405L223.848 149.071L270.82 92.6513C251.644 72.5363 222.64 62.9667 193.814 70.0747C150.742 80.6565 124.347 124.382 134.858 167.736C139.036 185.248 149.051 200.885 163.313 212.161C160.917 217.454 159.096 222.981 157.88 228.649L220.454 244.045L156.397 238.59C155.631 247.378 156.302 256.229 158.384 264.808C162.569 282.319 172.587 297.954 186.847 309.233C179.353 325.766 177.623 344.268 181.925 361.866C192.436 405.22 235.871 431.78 278.943 421.206C322.016 410.631 348.41 366.905 337.9 323.551C333.715 306.041 323.697 290.405 309.437 279.126C316.931 262.593 318.661 244.092 314.359 226.494C310.192 208.969 300.181 193.316 285.918 182.025Z" fill="#00BFA6"/>
<path opacity="0.1" d="M158.399 264.779C162.584 282.29 172.601 297.925 186.862 309.204C179.367 325.737 177.637 344.239 181.94 361.837C192.45 405.191 235.886 431.751 278.958 421.177C322.03 410.602 348.425 366.876 337.915 323.522C333.73 306.012 323.712 290.376 309.452 279.097C316.671 263.177 156.264 255.989 158.399 264.779Z" fill="black"/>
</g>
<g opacity="0.2">
<path opacity="0.2" d="M477.524 477.334C477.254 479.23 477.147 481.145 477.205 483.058C490.127 483.262 503.098 483.689 516.119 484.34C516.208 483.837 516.297 483.328 516.371 482.81C517.21 477.471 516.583 472.007 514.555 466.985C511.872 460.562 506.868 455.966 500.605 455.078C494.342 454.189 488.234 457.219 483.824 462.623C480.428 466.887 478.253 471.966 477.524 477.334Z" fill="#3F3D56"/>
<path opacity="0.2" d="M520.868 452.299C522.887 438.5 515.825 426.085 505.095 424.57C494.366 423.055 484.031 433.012 482.012 446.811C479.993 460.61 487.055 473.025 497.785 474.54C508.514 476.056 518.849 466.098 520.868 452.299Z" fill="#3F3D56"/>
<path opacity="0.2" d="M525.333 421.759C527.352 407.96 520.291 395.546 509.561 394.03C498.831 392.515 488.497 402.472 486.478 416.271C484.459 430.07 491.521 442.485 502.25 444.001C512.98 445.516 523.315 435.558 525.333 421.759Z" fill="#3F3D56"/>
<path opacity="0.2" d="M529.798 391.226C531.817 377.428 524.755 365.013 514.025 363.497C503.296 361.982 492.961 371.94 490.942 385.739C488.923 399.538 495.985 411.952 506.715 413.468C517.444 414.983 527.779 405.025 529.798 391.226Z" fill="#3F3D56"/>
<path opacity="0.2" d="M534.271 360.688C536.29 346.889 529.228 334.474 518.498 332.958C507.769 331.443 497.434 341.401 495.415 355.2C493.396 368.999 500.458 381.413 511.188 382.929C521.917 384.444 532.252 374.486 534.271 360.688Z" fill="#3F3D56"/>
<path opacity="0.2" d="M618.103 159.216C621.246 156.265 624.173 153.101 626.865 149.748L577.032 134.367L632.172 142.56C639.121 131.987 643.803 120.131 645.93 107.719C648.057 95.3076 647.585 82.5998 644.543 70.3733L564.965 97.6399L640.481 57.9489C635.671 46.1807 628.446 35.5116 619.257 26.6064C610.067 17.7012 599.11 10.7507 587.067 6.18782C575.025 1.62495 562.155 -0.452497 549.259 0.0848958C536.364 0.622289 523.719 3.76301 512.113 9.3114C500.507 14.8598 490.188 22.697 481.799 32.3347C473.41 41.9724 467.13 53.2042 463.352 65.3304C459.574 77.4565 458.377 90.2172 459.837 102.818C461.297 115.418 465.383 127.588 471.838 138.569C466.956 143.152 462.59 148.238 458.815 153.739L520.121 196.911L452.885 163.644C445.812 177.349 442.329 192.571 442.751 207.932C443.173 223.293 447.487 238.309 455.302 251.619C442.534 263.58 433.449 278.829 429.086 295.623C424.723 312.418 425.257 330.079 430.629 346.589C436 363.099 445.992 377.791 459.461 388.984C472.93 400.178 489.333 407.421 506.794 409.887C524.256 412.353 542.071 409.941 558.204 402.928C574.336 395.914 588.134 384.582 598.02 370.226C607.906 355.871 613.482 339.072 614.109 321.75C614.736 304.428 610.39 287.282 601.567 272.273C616.826 257.979 626.752 239.061 629.751 218.557C632.75 198.053 628.648 177.153 618.103 159.216Z" fill="#00BFA6"/>
<path opacity="0.1" d="M443.657 192.279C440.626 212.783 444.729 233.692 455.302 251.619C442.534 263.58 433.449 278.829 429.086 295.623C424.723 312.418 425.257 330.079 430.629 346.589C436 363.099 445.992 377.791 459.461 388.984C472.93 400.178 489.333 407.421 506.794 409.887C524.256 412.353 542.071 409.941 558.204 402.928C574.336 395.914 588.134 384.582 598.02 370.226C607.906 355.871 613.482 339.072 614.109 321.75C614.736 304.428 610.39 287.282 601.567 272.273C616.317 258.472 445.162 182.018 443.657 192.279Z" fill="black"/>
</g>
<path opacity="0.1" d="M401 528C622.466 528 802 517.892 802 505.423C802 492.955 622.466 482.847 401 482.847C179.534 482.847 0 492.955 0 505.423C0 517.892 179.534 528 401 528Z" fill="#00BFA6"/>
<path d="M663.169 496.327C673.526 496.327 681.922 494.739 681.922 492.781C681.922 490.822 673.526 489.234 663.169 489.234C652.813 489.234 644.417 490.822 644.417 492.781C644.417 494.739 652.813 496.327 663.169 496.327Z" fill="#00BFA6"/>
<path d="M662.858 494.091C664.066 494.091 665.045 492.833 665.045 491.28C665.045 489.728 664.066 488.469 662.858 488.469C661.651 488.469 660.672 489.728 660.672 491.28C660.672 492.833 661.651 494.091 662.858 494.091Z" fill="#3F3D56"/>
<path d="M662.858 490.654C664.066 490.654 665.045 489.395 665.045 487.843C665.045 486.29 664.066 485.032 662.858 485.032C661.651 485.032 660.672 486.29 660.672 487.843C660.672 489.395 661.651 490.654 662.858 490.654Z" fill="#3F3D56"/>
<path d="M662.858 487.224C664.066 487.224 665.045 485.965 665.045 484.413C665.045 482.86 664.066 481.602 662.858 481.602C661.651 481.602 660.672 482.86 660.672 484.413C660.672 485.965 661.651 487.224 662.858 487.224Z" fill="#3F3D56"/>
<path d="M662.858 483.794C664.066 483.794 665.045 482.535 665.045 480.983C665.045 479.43 664.066 478.171 662.858 478.171C661.651 478.171 660.672 479.43 660.672 480.983C660.672 482.535 661.651 483.794 662.858 483.794Z" fill="#3F3D56"/>
<path d="M662.858 480.356C664.066 480.356 665.045 479.098 665.045 477.545C665.045 475.992 664.066 474.734 662.858 474.734C661.651 474.734 660.672 475.992 660.672 477.545C660.672 479.098 661.651 480.356 662.858 480.356Z" fill="#3F3D56"/>
<path d="M662.858 476.926C664.066 476.926 665.045 475.667 665.045 474.115C665.045 472.562 664.066 471.304 662.858 471.304C661.651 471.304 660.672 472.562 660.672 474.115C660.672 475.667 661.651 476.926 662.858 476.926Z" fill="#3F3D56"/>
<path d="M662.858 473.496C664.066 473.496 665.045 472.237 665.045 470.685C665.045 469.132 664.066 467.874 662.858 467.874C661.651 467.874 660.672 469.132 660.672 470.685C660.672 472.237 661.651 473.496 662.858 473.496Z" fill="#3F3D56"/>
<path d="M671.026 447.198C671.327 446.824 671.599 446.43 671.842 446.018L666.105 445.093L672.309 445.137C672.903 443.864 673.227 442.486 673.262 441.086C673.296 439.686 673.04 438.294 672.509 436.995L664.185 441.24L671.864 435.691C671.148 434.463 670.181 433.393 669.024 432.549C667.868 431.705 666.546 431.105 665.143 430.786C663.739 430.467 662.283 430.436 660.867 430.696C659.451 430.955 658.104 431.499 656.912 432.293C655.719 433.087 654.706 434.115 653.937 435.311C653.167 436.508 652.657 437.848 652.439 439.247C652.22 440.646 652.299 442.074 652.668 443.442C653.038 444.811 653.691 446.089 654.586 447.198C654.123 447.779 653.723 448.406 653.393 449.069L660.805 452.871L652.867 450.249C652.31 451.872 652.176 453.606 652.477 455.293C652.777 456.979 653.502 458.565 654.586 459.906C653.373 461.422 652.618 463.243 652.408 465.16C652.198 467.077 652.541 469.014 653.399 470.749C654.256 472.484 655.593 473.946 657.257 474.969C658.92 475.993 660.844 476.535 662.806 476.535C664.769 476.535 666.692 475.993 668.356 474.969C670.02 473.946 671.357 472.484 672.214 470.749C673.071 469.014 673.415 467.077 673.205 465.16C672.995 463.243 672.24 461.422 671.026 459.906C672.476 458.096 673.265 455.859 673.265 453.556C673.265 451.252 672.476 449.015 671.026 447.205V447.198Z" fill="#00BFA6"/>
<path opacity="0.1" d="M652.348 453.548C652.341 455.851 653.124 458.088 654.571 459.899C653.358 461.415 652.603 463.235 652.393 465.153C652.183 467.07 652.526 469.007 653.384 470.742C654.241 472.476 655.578 473.939 657.242 474.962C658.906 475.986 660.829 476.528 662.792 476.528C664.754 476.528 666.677 475.986 668.341 474.962C670.005 473.939 671.342 472.476 672.199 470.742C673.057 469.007 673.4 467.07 673.19 465.153C672.98 463.235 672.225 461.415 671.012 459.899C672.427 458.151 652.348 452.398 652.348 453.548Z" fill="black"/>
<path d="M232.521 524.854C246.357 524.854 257.574 522.734 257.574 520.12C257.574 517.506 246.357 515.386 232.521 515.386C218.684 515.386 207.467 517.506 207.467 520.12C207.467 522.734 218.684 524.854 232.521 524.854Z" fill="#00BFA6"/>
<path d="M232.098 521.861C233.711 521.861 235.019 520.181 235.019 518.11C235.019 516.039 233.711 514.359 232.098 514.359C230.485 514.359 229.178 516.039 229.178 518.11C229.178 520.181 230.485 521.861 232.098 521.861Z" fill="#3F3D56"/>
<path d="M232.098 517.273C233.711 517.273 235.019 515.593 235.019 513.522C235.019 511.45 233.711 509.771 232.098 509.771C230.485 509.771 229.178 511.45 229.178 513.522C229.178 515.593 230.485 517.273 232.098 517.273Z" fill="#3F3D56"/>
<path d="M232.098 512.684C233.711 512.684 235.019 511.005 235.019 508.934C235.019 506.862 233.711 505.183 232.098 505.183C230.485 505.183 229.178 506.862 229.178 508.934C229.178 511.005 230.485 512.684 232.098 512.684Z" fill="#3F3D56"/>
<path d="M232.098 508.103C233.711 508.103 235.019 506.424 235.019 504.353C235.019 502.281 233.711 500.602 232.098 500.602C230.485 500.602 229.178 502.281 229.178 504.353C229.178 506.424 230.485 508.103 232.098 508.103Z" fill="#3F3D56"/>
<path d="M232.098 503.515C233.711 503.515 235.019 501.836 235.019 499.765C235.019 497.693 233.711 496.014 232.098 496.014C230.485 496.014 229.178 497.693 229.178 499.765C229.178 501.836 230.485 503.515 232.098 503.515Z" fill="#3F3D56"/>
<path d="M232.098 498.927C233.711 498.927 235.019 497.248 235.019 495.177C235.019 493.105 233.711 491.426 232.098 491.426C230.485 491.426 229.178 493.105 229.178 495.177C229.178 497.248 230.485 498.927 232.098 498.927Z" fill="#3F3D56"/>
<path d="M232.098 494.346C233.711 494.346 235.019 492.667 235.019 490.596C235.019 488.524 233.711 486.845 232.098 486.845C230.485 486.845 229.178 488.524 229.178 490.596C229.178 492.667 230.485 494.346 232.098 494.346Z" fill="#3F3D56"/>
<path d="M243.024 459.214C243.419 458.714 243.781 458.188 244.106 457.641L236.449 456.403L244.736 456.469C245.533 454.769 245.968 452.927 246.014 451.056C246.06 449.184 245.716 447.324 245.003 445.588L233.885 451.254L244.136 443.884C243.171 442.26 241.877 440.849 240.334 439.737C238.79 438.624 237.031 437.836 235.165 437.419C233.299 437.003 231.366 436.967 229.485 437.315C227.604 437.663 225.816 438.386 224.232 439.441C222.648 440.496 221.301 441.859 220.275 443.446C219.249 445.034 218.566 446.811 218.268 448.668C217.97 450.526 218.064 452.423 218.543 454.244C219.022 456.064 219.877 457.768 221.054 459.251C220.435 460.028 219.901 460.868 219.46 461.756L229.415 466.854L218.801 463.358C218.054 465.519 217.866 467.829 218.254 470.08C218.643 472.33 219.595 474.45 221.024 476.249C219.404 478.274 218.397 480.706 218.117 483.267C217.837 485.828 218.297 488.415 219.442 490.732C220.588 493.049 222.374 495.002 224.597 496.369C226.819 497.735 229.388 498.46 232.009 498.46C234.631 498.46 237.2 497.735 239.422 496.369C241.644 495.002 243.43 493.049 244.576 490.732C245.722 488.415 246.181 485.828 245.901 483.267C245.622 480.706 244.614 478.274 242.994 476.249C244.929 473.828 245.981 470.839 245.981 467.761C245.981 464.682 244.929 461.693 242.994 459.273L243.024 459.214Z" fill="#00BFA6"/>
<path opacity="0.1" d="M218.067 467.699C218.058 470.776 219.102 473.767 221.032 476.19C219.412 478.216 218.404 480.648 218.124 483.209C217.845 485.77 218.304 488.357 219.45 490.674C220.596 492.991 222.382 494.944 224.604 496.311C226.826 497.677 229.395 498.402 232.017 498.402C234.638 498.402 237.207 497.677 239.429 496.311C241.652 494.944 243.438 492.991 244.584 490.674C245.729 488.357 246.189 485.77 245.909 483.209C245.629 480.648 244.622 478.216 243.002 476.19C244.892 473.853 218.067 466.162 218.067 467.699Z" fill="black"/>
<path d="M364.428 311.651C362.538 301.936 360.426 292.199 360.077 282.316C359.87 276.49 360.285 270.562 359.521 264.75C359.143 261.895 358.484 259.091 357.831 256.288L355.207 245.065C355.505 242.913 355.42 240.728 354.955 238.605C354.693 237.486 354.343 236.388 353.91 235.32C356.36 231.933 358.378 228.265 359.922 224.396C360.618 222.648 361.219 220.791 360.945 218.942C360.411 215.395 356.912 213.057 353.658 211.309C351.687 210.253 349.611 209.234 347.358 209.066C345.782 209.004 344.213 209.3 342.773 209.932C341.333 210.563 340.061 211.513 339.056 212.708C338.509 209.836 338.692 206.877 339.59 204.092C337.655 203.24 335.706 202.439 333.742 201.66C333.458 199.143 333.359 196.609 333.445 194.078C333.49 191.041 333.542 187.975 333.719 184.931C338.991 183.041 343.547 179.612 346.777 175.103C350.008 170.595 351.757 165.224 351.79 159.711C351.79 159.398 351.79 159.092 351.79 158.786C353.227 156.249 354.136 153.456 354.464 150.57C354.792 147.685 354.534 144.764 353.703 141.977C351.531 134.695 345.853 128.694 339.012 124.987C332.17 121.28 324.239 119.714 316.39 119.437C313.755 119.286 311.112 119.45 308.518 119.925C305.742 120.597 303.051 121.574 300.498 122.838C296.577 124.615 292.626 126.56 289.691 129.626C284.599 134.964 283.457 142.808 284.013 150.018C284.754 159.485 287.971 168.647 291.692 177.459C292.93 180.372 294.25 183.329 296.288 185.812C297.867 187.728 300.609 187.844 302.788 186.504C302.615 188.831 302.561 191.164 302.625 193.496C298.6 193.357 294.679 194.005 291.448 196.234C289.965 197.275 288.557 198.914 288.883 200.676C289.873 200.702 290.822 201.071 291.562 201.717C292.303 202.363 292.787 203.246 292.93 204.209C293.093 205.76 292.3 207.238 291.529 208.578C291.196 209.175 290.862 209.78 290.521 210.377C287.334 213.727 284.065 217.922 283.776 222.08C283.256 222.129 282.739 222.204 282.227 222.306C279.336 222.831 276.46 223.799 273.621 224.527L253.075 229.844L247.997 231.228L239.844 233.34C234.655 234.68 229.371 236.056 224.768 238.751C220.165 241.445 216.258 245.677 215.332 250.774C214.872 253.309 215.154 255.945 214.591 258.458C214.591 258.574 214.546 258.684 214.516 258.793C214.046 260.383 213.412 261.923 212.626 263.388C208.023 272.921 204.747 283.314 205.362 293.808C205.74 300.254 207.586 306.539 209.38 312.743C211.263 319.089 213.121 325.435 214.954 331.781C216.163 336.323 217.696 340.777 219.542 345.108C222.705 352.046 227.396 358.208 233.277 363.147C234.927 364.602 236.773 365.827 238.762 366.789C241.795 368.077 245.106 368.605 248.398 368.326C249.287 368.267 250.162 368.173 251.029 368.034C257.396 367.044 263.333 364.029 268.781 360.635C271.059 359.217 273.283 357.724 275.452 356.156C275.728 358.603 276.224 361.02 276.935 363.381C277.416 365.005 278.009 366.672 277.817 368.355C277.55 370.7 275.815 372.622 274.918 374.822C273.014 379.468 274.97 384.646 275.289 389.628C275.593 394.296 274.437 398.928 273.51 403.523C271.963 411.187 271.048 418.961 270.775 426.77C270.767 429.726 270.569 432.679 270.182 435.611C269.493 439.748 267.877 443.738 267.595 447.919C267.165 454.43 270.026 460.802 269.767 467.32C269.463 474.974 264.89 482.41 266.483 489.897C266.684 490.836 267.225 491.921 268.099 492.161L267.669 492.548C266.357 493.742 265.083 495.949 266.572 496.917C266.915 497.117 267.296 497.246 267.692 497.296C269.997 497.769 272.317 498.199 274.637 498.599C274.586 500.705 274.856 502.806 275.437 504.834C275.86 505.132 276.29 505.402 276.72 505.656C276.394 506.516 276.416 507.346 277.187 507.841C277.529 508.041 277.91 508.17 278.306 508.22C297.399 512.091 316.899 513.68 336.38 512.954C339.864 512.823 343.504 512.575 346.476 510.827C349.448 509.079 351.457 505.358 350.041 502.292C348.788 499.583 345.512 498.41 342.57 497.507L339.116 496.458C339.558 495.688 339.816 494.828 339.87 493.945C339.924 493.061 339.772 492.178 339.427 491.36C338.174 488.651 334.898 487.479 331.955 486.576L324.002 484.15C322.955 483.907 321.971 483.453 321.111 482.818C320.542 482.261 320.016 481.662 319.54 481.026C318.392 479.737 316.885 478.808 315.204 478.353C315.114 476.697 315.152 475.037 315.315 473.387L317.539 447.016C318.035 441.044 318.524 434.955 317.109 429.122C316.538 426.755 315.626 424.33 316.182 421.956C317.049 418.081 321.2 415.926 324.032 413.049C328.301 408.679 329.628 402.467 330.606 396.553C334.658 372.15 335.931 347.379 334.401 322.699C343.299 320.234 352.457 318.788 361.693 318.388C363.264 318.322 364.035 317.594 364.525 316.152C365.014 314.71 364.717 313.144 364.428 311.651ZM320.066 312.94C320.118 312.685 320.177 312.43 320.222 312.175L320.837 312.947L320.066 312.94Z" fill="url(#paint0_linear)"/>
<path d="M305.612 179.265C305.42 181.8 304.508 184.232 304.174 186.759C303.796 189.541 304.13 192.374 303.945 195.178C303.759 197.982 302.937 200.931 300.765 202.759C313.388 203.833 325.821 206.476 337.767 210.625C334.157 206.255 334.06 200.152 334.149 194.544C334.268 186.249 334.416 177.794 337.174 169.965C328.95 168.159 320.434 168.05 312.165 169.645C310.371 169.994 304.938 169.776 304.13 171.422C303.544 172.631 305.746 177.43 305.612 179.265Z" fill="#A1616A"/>
<path opacity="0.1" d="M305.612 179.265C305.42 181.8 304.508 184.232 304.174 186.759C303.796 189.541 304.13 192.374 303.945 195.178C303.759 197.982 302.937 200.931 300.765 202.759C313.388 203.833 325.821 206.476 337.767 210.625C334.157 206.255 334.06 200.152 334.149 194.544C334.268 186.249 334.416 177.794 337.174 169.965C328.95 168.159 320.434 168.05 312.165 169.645C310.371 169.994 304.938 169.776 304.13 171.422C303.544 172.631 305.746 177.43 305.612 179.265Z" fill="black"/>
<path d="M320.555 481.063C321.001 481.709 321.496 482.32 322.038 482.891C322.873 483.526 323.835 483.981 324.862 484.223L332.63 486.648C335.513 487.552 338.715 488.717 339.938 491.426C341.317 494.485 339.353 498.206 336.447 499.947C333.542 501.687 329.984 501.942 326.582 502.073C307.532 502.795 288.465 501.207 269.811 497.347C269.427 497.292 269.056 497.163 268.722 496.968C267.239 495.985 268.507 493.786 269.789 492.599C274.792 487.938 280.233 483.051 287.045 481.973C290.625 481.398 294.22 481.631 297.778 480.793C300.335 480.189 302.751 479.147 305.301 478.528C310.052 477.385 317.161 476.977 320.555 481.063Z" fill="#46455B"/>
<path opacity="0.1" d="M320.555 481.063C321.001 481.709 321.496 482.32 322.038 482.891C322.873 483.526 323.835 483.981 324.862 484.223L332.63 486.648C335.513 487.552 338.715 488.717 339.938 491.426C341.317 494.485 339.353 498.206 336.447 499.947C333.542 501.687 329.984 501.942 326.582 502.073C307.532 502.795 288.465 501.207 269.811 497.347C269.427 497.292 269.056 497.163 268.722 496.968C267.239 495.985 268.507 493.786 269.789 492.599C274.792 487.938 280.233 483.051 287.045 481.973C290.625 481.398 294.22 481.631 297.778 480.793C300.335 480.189 302.751 479.147 305.301 478.528C310.052 477.385 317.161 476.977 320.555 481.063Z" fill="black"/>
<path d="M281.552 316.341C277.719 326.28 277.484 337.211 280.885 347.3C278.298 347.023 277.179 350.461 277.246 353.024C277.338 356.593 277.888 360.136 278.884 363.57C279.358 365.201 279.937 366.862 279.751 368.537C279.484 370.882 277.794 372.804 276.912 374.997C275.059 379.636 276.964 384.806 277.283 389.781C277.579 394.449 276.445 399.073 275.534 403.661C274.023 411.317 273.131 419.078 272.865 426.872C272.86 429.826 272.664 432.776 272.28 435.706C271.613 439.842 270.056 443.826 269.76 447.999C269.337 454.495 272.131 460.868 271.879 467.378C271.583 475.018 267.106 482.446 268.67 489.955C268.892 491.011 269.493 492.256 270.597 492.271C281.775 492.409 292.219 489.358 303.278 490.953C304.404 465.813 305.501 440.556 310.542 415.875C314.989 393.903 322.527 372.178 321.823 349.776C321.415 336.966 318.317 324.403 316.434 311.717C304.617 309.139 292.252 310.778 281.552 316.341Z" fill="#BBBDC8"/>
<path opacity="0.1" d="M281.552 316.341C277.719 326.28 277.484 337.211 280.885 347.3C278.298 347.023 277.179 350.461 277.246 353.024C277.338 356.593 277.888 360.136 278.884 363.57C279.358 365.201 279.937 366.862 279.751 368.537C279.484 370.882 277.794 372.804 276.912 374.997C275.059 379.636 276.964 384.806 277.283 389.781C277.579 394.449 276.445 399.073 275.534 403.661C274.023 411.317 273.131 419.078 272.865 426.872C272.86 429.826 272.664 432.776 272.28 435.706C271.613 439.842 270.056 443.826 269.76 447.999C269.337 454.495 272.131 460.868 271.879 467.378C271.583 475.018 267.106 482.446 268.67 489.955C268.892 491.011 269.493 492.256 270.597 492.271C281.775 492.409 292.219 489.358 303.278 490.953C304.404 465.813 305.501 440.556 310.542 415.875C314.989 393.903 322.527 372.178 321.823 349.776C321.415 336.966 318.317 324.403 316.434 311.717C304.617 309.139 292.252 310.778 281.552 316.341Z" fill="black"/>
<path d="M330.932 491.987C331.378 492.633 331.874 493.244 332.415 493.815C333.25 494.45 334.212 494.905 335.239 495.148L343.007 497.573C345.89 498.476 349.092 499.641 350.315 502.35C351.694 505.409 349.73 509.13 346.824 510.871C343.919 512.612 340.361 512.866 336.959 512.998C317.909 513.719 298.843 512.131 280.189 508.271C279.804 508.216 279.433 508.088 279.099 507.892C277.617 506.909 278.884 504.71 280.166 503.523C285.17 498.862 290.61 493.975 297.422 492.897C301.002 492.322 304.597 492.555 308.155 491.717C310.712 491.113 313.128 490.071 315.678 489.452C320.429 488.309 327.538 487.901 330.932 491.987Z" fill="#46455B"/>
<path d="M285.407 317.062C282.546 320.704 281.701 325.51 282.086 330.069C282.472 334.628 284.035 339.005 285.57 343.324C283.531 345.166 283.954 348.342 284.221 351.051C285.192 361.116 281.634 371.159 282.153 381.252C282.368 385.498 283.309 389.686 283.531 393.932C283.776 398.571 283.176 403.21 282.612 407.82C279.014 437.332 277.034 467.014 276.683 496.735C276.683 499.473 276.638 502.255 277.424 504.877C282.812 508.774 289.58 509.298 296.103 507.841C302.625 506.385 308.577 503.137 314.426 499.932C317.629 498.303 320.667 496.376 323.498 494.179C324.364 493.577 325.005 492.712 325.321 491.717C325.944 488.804 321.823 487.486 319.458 485.6C316.019 482.854 316.071 477.771 316.427 473.43L318.576 447.096C319.066 441.131 319.54 435.05 318.161 429.224C317.598 426.864 316.731 424.439 317.25 422.065C318.095 418.205 322.156 416.049 324.921 413.173C329.102 408.803 330.391 402.605 331.355 396.706C335.896 368.721 336.862 340.287 334.231 312.066C328.783 313.923 322.327 312.911 316.582 313.348C310.838 313.785 305.131 315.671 299.312 315.824C294.464 315.933 288.386 313.304 285.407 317.062Z" fill="#BBBDC8"/>
<path d="M324.654 187.167C339.801 187.167 352.079 175.103 352.079 160.221C352.079 145.339 339.801 133.274 324.654 133.274C309.508 133.274 297.229 145.339 297.229 160.221C297.229 175.103 309.508 187.167 324.654 187.167Z" fill="#A1616A"/>
<path d="M340.153 204.544C331.365 200.578 322.202 197.47 312.795 195.265C306.168 193.714 298.6 192.782 293.064 196.678C291.581 197.72 290.239 199.358 290.558 201.121C291.535 201.152 292.469 201.524 293.193 202.17C293.916 202.816 294.383 203.693 294.509 204.646C294.672 206.189 293.901 207.668 293.145 209.015L286.748 220.668C285.523 222.767 284.469 224.958 283.598 227.222C282.308 230.922 282.027 234.884 281.753 238.787L281.011 249.362C280.552 256.025 280.085 262.718 280.7 269.367C281.16 274.385 282.227 279.425 281.501 284.414C280.915 288.426 279.188 292.192 278.217 296.139C276.394 303.567 277.224 311.709 273.688 318.526C275.124 317.875 276.745 317.731 278.276 318.118C289.009 320.063 297.452 328.387 307.873 331.569C310.504 327.797 314.07 325.015 317.012 321.505C319.201 318.873 320.65 315.725 321.215 312.372C323.439 315.285 325.329 317.557 326.656 320.937C326.892 321.723 327.296 322.45 327.842 323.07C329.242 324.41 331.548 323.893 333.423 323.333C342.617 320.608 352.121 319.025 361.715 318.621C363.257 318.555 364.006 317.827 364.487 316.385C364.969 314.943 364.702 313.384 364.413 311.899C362.568 302.191 360.507 292.468 360.166 282.6C359.959 276.774 360.366 270.868 359.618 265.056C359.247 262.208 358.602 259.405 357.965 256.608L352.672 233.5C352.376 232.211 350.968 231.366 350.367 230.179C347.936 225.343 343.289 221.847 340.887 216.997C339.073 213.08 338.811 208.64 340.153 204.544Z" fill="#46455B"/>
<path d="M301.677 171.006C301.644 170.629 301.735 170.252 301.936 169.929C302.229 169.626 302.597 169.403 303.003 169.28C304.108 168.765 305.012 167.909 305.578 166.843C306.144 165.778 306.341 164.56 306.139 163.374L308.733 162.842L308.814 153.965C312.669 151.867 317.924 153.455 321.549 150.986C323.587 149.588 324.632 147.214 325.877 145.102C327.123 142.99 328.976 140.863 331.451 140.688C330.6 142.816 330.235 145.102 330.382 147.383C330.53 149.665 331.186 151.887 332.304 153.892C334.899 152.601 337.067 150.611 338.552 148.153L339.842 155.436C339.868 155.885 340.064 156.308 340.39 156.623C341.065 157.111 341.977 156.499 342.57 155.895L345.927 152.654C347.34 156.138 348.309 159.78 348.811 163.498C354.325 158.24 356.038 149.792 353.918 142.538C351.798 135.285 346.246 129.276 339.56 125.569C332.874 121.862 325.121 120.304 317.45 120.027C314.874 119.879 312.29 120.043 309.756 120.515C307.037 121.187 304.405 122.165 301.914 123.428C298.082 125.198 294.212 127.142 291.351 130.201C286.37 135.532 285.251 143.368 285.8 150.593C286.541 160.06 289.669 169.2 293.308 177.998C294.516 180.911 295.806 183.86 297.8 186.344C300.802 190.08 308.177 186.978 307.236 179.593C306.583 174.32 301.677 176.352 301.677 171.006Z" fill="#3F3D56"/>
<path d="M312.054 315.271C302.803 333.841 288.599 349.597 270.953 360.861C265.624 364.247 259.835 367.262 253.601 368.253C252.749 368.391 251.896 368.486 251.029 368.544C247.814 368.806 244.585 368.267 241.638 366.978C239.687 366.013 237.881 364.788 236.271 363.337C230.503 358.376 225.92 352.227 222.848 345.327C221.042 340.996 219.544 336.548 218.363 332.014C216.545 325.673 214.731 319.33 212.923 312.984C211.151 306.779 209.365 300.501 208.994 294.049C208.394 283.569 211.596 273.191 216.095 263.672C216.863 262.206 217.481 260.669 217.941 259.084C217.941 258.975 217.993 258.866 218.015 258.749C218.549 256.237 218.274 253.608 218.756 251.073C219.661 245.975 223.485 241.751 227.977 239.064C232.469 236.377 237.613 235 242.72 233.66L250.673 231.555L255.61 230.252L275.689 224.943C278.469 224.214 281.278 223.246 284.102 222.758C287.252 222.175 287.23 222.481 287.475 225.511C287.927 231.002 287.779 236.398 288.957 241.839C290.076 247.031 292.048 252.034 293.531 257.132C297.274 270.001 297.896 283.547 300.846 296.619C301.521 299.598 302.455 302.773 304.893 304.631C307.688 306.815 312.395 307.354 313.136 310.777C313.41 312.299 312.721 313.858 312.054 315.271Z" fill="#00BFA6"/>
<path opacity="0.1" d="M253.601 368.224C252.749 368.362 251.896 368.457 251.029 368.515C247.817 368.786 244.587 368.257 241.638 366.978C239.687 366.013 237.881 364.788 236.271 363.337C230.503 358.376 225.92 352.227 222.848 345.327C221.042 340.996 219.544 336.548 218.363 332.014C216.545 325.673 214.731 319.33 212.923 312.984C211.151 306.779 209.365 300.501 208.994 294.049C208.394 283.569 211.596 273.191 216.095 263.672C216.863 262.206 217.481 260.669 217.941 259.084C217.941 258.975 217.993 258.866 218.015 258.749C230.112 260.839 244.625 283.576 252.111 313.37C257.626 335.648 257.863 356.163 253.601 368.224Z" fill="black"/>
<path opacity="0.1" d="M275.467 289.832L273.443 290.174C271.361 284.8 269.285 279.418 266.847 274.189C265.579 271.458 264.208 268.763 263.141 265.944C259.138 255.122 259.82 242.283 252.4 233.369C251.871 232.707 251.266 232.106 250.599 231.577L255.536 230.274C259.858 236.989 262.907 244.418 264.534 252.202C265.335 256.004 265.787 259.893 267.091 263.548C268.201 266.322 269.47 269.03 270.894 271.661C273.71 277.335 275.83 283.532 275.467 289.832Z" fill="black"/>
<path d="M295.169 207.777C300.498 203.291 307.769 200.829 314.67 201.951C318.732 202.599 322.505 204.398 326.144 206.321C333.238 210.02 340.227 214.281 345.342 220.362C348.409 224.197 350.955 228.408 352.917 232.888C353.879 234.846 354.625 236.899 355.141 239.013C356.949 247.242 352.509 255.421 348.233 262.718L340.005 276.745C336.225 283.19 332.415 289.679 327.493 295.338C325.225 297.945 322.735 300.356 320.251 302.766L309.348 313.341C309.152 313.568 308.895 313.737 308.607 313.829C308.369 313.841 308.131 313.803 307.91 313.716C307.688 313.629 307.489 313.496 307.325 313.326L303.722 310.508C307.04 308.255 310.124 305.687 312.928 302.839C317.642 298.047 321.519 292.534 325.373 287.043L337.366 269.957C340.872 264.954 344.534 259.448 344.141 253.389C343.956 250.476 342.844 247.738 341.68 245.065C339.62 240.312 337.381 235.634 334.965 231.031C332.252 225.867 329.287 220.77 325.381 216.407C321.475 212.045 316.538 208.396 310.853 206.816C309.157 206.271 307.36 206.102 305.59 206.321C301.691 206.954 298.919 210.246 296.451 213.305L288.935 222.772C287.223 224.921 285.651 227.411 285.548 223.333C285.37 217.514 291.359 211.52 295.169 207.777Z" fill="#00BFA6"/>
<path d="M297.496 271.647C298.978 277.255 301.165 283.62 306.658 285.746C310.549 287.254 315.107 286.03 318.473 283.561C321.838 281.093 324.224 277.611 326.418 274.094C328.275 270.933 330.322 267.883 332.548 264.961C336.944 259.543 342.925 255.246 345.89 248.939C346.765 247.06 347.373 245.05 348.366 243.244C349.427 241.579 350.627 240.003 351.953 238.532C355.366 234.378 358.095 229.723 360.04 224.739C360.722 222.998 361.308 221.134 361.041 219.291C360.515 215.744 357.097 213.414 353.918 211.673C351.983 210.617 349.96 209.591 347.758 209.43C344.541 209.183 341.376 210.887 339.397 213.385C337.492 215.969 336.427 219.058 336.343 222.248C336.121 226.13 336.892 230.164 335.602 233.835C334.92 235.547 333.978 237.148 332.808 238.583C328.644 244.056 323.491 248.729 317.605 252.369C317.444 249.615 316.836 246.903 315.804 244.337C315.241 242.924 304.197 244.337 302.759 244.57C299.912 244.977 294.398 245.298 292.604 247.963C290.81 250.629 293.034 255.108 293.76 257.795L297.496 271.647Z" fill="#A1616A"/>
<path d="M297.229 210.45C295.589 211.782 294.061 213.243 292.663 214.82C289.372 218.716 287.764 223.785 287.349 228.832C286.934 233.879 287.638 238.947 288.52 243.936C289.32 248.412 290.267 252.857 291.359 257.271C291.663 253.943 294.405 251.19 297.585 249.988C300.765 248.786 304.256 248.917 307.643 249.405C312.003 250.04 316.256 251.247 320.289 252.996L321.853 231.461C322.182 228.556 322.164 225.623 321.801 222.721C321.308 220.029 320.238 217.471 318.661 215.217C317.083 212.963 315.036 211.065 312.654 209.649C306.709 206.095 302.566 205.869 297.229 210.45Z" fill="#46455B"/>
<path d="M577.247 315.241C576.544 309.397 574.813 303.717 572.133 298.455C570.495 295.25 568.501 292.184 567.471 288.754C566.633 285.965 566.47 283.03 565.803 280.197C565.136 277.364 563.957 274.655 563.008 271.887C556.3 252.224 561.341 230.711 559.176 210.1C558.368 202.497 555.996 194.158 549.288 190.197C545.301 187.844 540.512 187.48 535.82 187.283L533.678 187.189L530.239 187.021C525.258 186.781 520.262 186.599 515.415 187.626C509.485 188.9 502.458 193 500.59 198.95C499.567 198.433 498.537 197.975 497.588 197.545C493.77 195.881 489.768 194.659 485.662 193.903C489.184 193.032 492.584 191.74 495.787 190.058C503.199 185.82 504.919 173.439 506.431 165.158C507.943 156.878 506.565 148.321 504.052 140.273C503.222 137.418 502.092 134.655 500.679 132.029C498.728 128.571 496.072 125.545 492.877 123.141C489.683 120.736 486.017 119.005 482.111 118.055C478.204 117.105 474.141 116.957 470.173 117.619C466.206 118.282 462.42 119.741 459.052 121.906C452.137 126.356 445.71 132.83 440.433 139.086C439.692 139.946 436.593 142.99 437.624 144.271C438.202 145 440.107 144.417 442.108 143.543C440.568 146.961 439.776 150.657 439.781 154.394C439.785 159.088 441.033 163.7 443.403 167.777C445.772 171.853 449.18 175.252 453.293 177.641L454.034 184.341V184.392C454.116 186.628 454.153 188.864 454.183 191.092C454.183 192.658 454.183 194.26 454.138 195.863C451.062 199.282 447.296 202.035 443.079 203.946C446.563 204.514 449.883 203.713 453.115 202.344C452.59 204.133 451.708 205.802 450.521 207.253C451.41 206.947 452.3 206.67 453.189 206.379C452.724 207.113 452.311 207.877 451.951 208.666C451.403 209.913 451.003 211.218 450.758 212.555C448.871 215.264 447.236 218.136 445.873 221.134C445.251 222.496 444.695 223.879 444.191 225.285V225.38C443.697 226.778 443.259 228.196 442.879 229.633C442.701 230.322 442.538 231.014 442.39 231.708C442.39 231.759 442.39 231.81 442.39 231.861C442.093 233.267 441.849 234.68 441.649 236.107C441.649 236.202 441.649 236.296 441.649 236.398C441.567 237.061 441.493 237.731 441.441 238.401C441.441 238.401 441.441 238.467 441.441 238.503C441.382 239.231 441.337 239.923 441.315 240.637C441.315 240.732 441.315 240.819 441.315 240.914C441.315 241.518 441.315 242.13 441.315 242.734V243.149C441.315 244.519 441.404 245.895 441.537 247.272C441.537 247.439 441.537 247.614 441.589 247.781C441.649 248.342 441.715 248.903 441.797 249.471C441.797 249.602 441.797 249.733 441.849 249.857C441.945 250.534 442.056 251.204 442.182 251.874C442.182 252.02 442.249 252.173 442.279 252.318C442.382 252.857 442.494 253.389 442.62 253.928L442.753 254.481C442.916 255.151 443.086 255.814 443.279 256.484C443.39 256.863 443.502 257.212 443.62 257.613C443.974 258.994 444.222 260.398 444.361 261.815L440.307 261.946C431.63 262.189 422.96 262.575 414.297 263.104C413.215 259.004 409.524 256.637 404.877 256.076C404.139 255.989 403.396 255.945 402.653 255.945C403.455 255.282 404.167 254.521 404.773 253.68C405.579 252.59 406.154 251.352 406.463 250.039C405.268 250.707 404.224 251.606 403.394 252.683C403.12 253.047 402.875 253.411 402.653 253.746V251.561C402.654 251.515 402.645 251.469 402.628 251.426C402.61 251.383 402.584 251.344 402.551 251.312C402.518 251.279 402.478 251.253 402.434 251.236C402.391 251.219 402.344 251.21 402.297 251.211H401.556C401.509 251.21 401.462 251.219 401.419 251.236C401.375 251.253 401.335 251.279 401.302 251.312C401.269 251.344 401.243 251.383 401.225 251.426C401.208 251.469 401.199 251.515 401.2 251.561V256.011H401.052H400.8C400.311 256.055 399.836 256.113 399.369 256.2C394.322 257.125 390.623 260.308 390.623 265.668C390.624 267.356 390.999 269.023 391.721 270.555C392.442 272.086 393.494 273.445 394.803 274.538C395.021 276.208 395.406 277.852 395.952 279.447C396.464 281.027 397.131 282.746 398.628 283.532C399.543 283.94 400.546 284.12 401.548 284.057C409.791 284.057 417.589 280.321 425.794 279.687C430.864 279.287 435.956 280.058 441.041 279.906C441.782 279.906 442.523 279.833 443.264 279.774C436.312 313.603 427.899 347.861 432.294 382.032C432.583 384.304 433.036 386.765 434.763 388.309C437.053 390.363 440.581 390.028 443.657 389.766C452.099 389.01 460.609 389.677 468.822 391.74C469.976 392.053 471.19 392.096 472.365 391.863C472.616 391.807 472.863 391.737 473.106 391.652L473.313 391.572C473.469 391.514 473.617 391.456 473.758 391.39L473.973 391.281L474.336 391.062C474.396 391.019 474.462 390.982 474.514 390.938C474.643 390.851 474.765 390.754 474.877 390.647L474.981 390.56C475.12 390.426 475.251 390.285 475.374 390.137L475.463 390.006C475.549 389.897 475.628 389.783 475.7 389.664C475.737 389.606 475.774 389.547 475.804 389.489C475.834 389.431 475.923 389.271 475.974 389.161C476.026 389.052 476.034 389.03 476.056 388.965C476.078 388.899 476.152 388.725 476.197 388.601C476.241 388.477 476.197 388.484 476.256 388.419C476.315 388.353 476.36 388.055 476.397 387.872V387.756C476.397 387.603 476.456 387.443 476.478 387.29C476.501 387.137 476.478 387.13 476.478 387.049C476.478 386.969 476.478 386.809 476.478 386.693V386.43C476.478 386.314 476.478 386.197 476.478 386.081V385.433C476.478 385.36 476.478 385.28 476.478 385.2C476.478 384.551 476.404 383.896 476.338 383.27C476.867 383.421 477.407 383.535 477.953 383.612C478.463 383.692 478.979 383.728 479.495 383.721H479.569C479.814 383.721 480.059 383.721 480.311 383.663C480.525 383.631 480.738 383.587 480.948 383.532H481.044C481.238 383.476 481.427 383.402 481.608 383.313L481.697 383.262C481.851 383.178 481.997 383.081 482.134 382.971L482.201 382.92C482.34 382.793 482.464 382.652 482.571 382.498L482.638 382.389C482.748 382.213 482.835 382.025 482.897 381.828C483.32 380.422 482.356 378.835 483.898 377.545C485.38 382.214 486.863 386.889 487.107 391.718C487.189 393.48 487.108 395.359 488.16 396.816C488.845 397.611 489.588 398.356 490.384 399.044C492.652 401.455 492.704 405.089 492.548 408.352C492.481 409.67 492.407 410.988 492.311 412.306C491.086 429.897 487.446 447.244 481.489 463.875C480.909 465.645 480.149 467.353 479.221 468.973C477.717 471.267 475.836 473.3 473.654 474.989C470.564 477.567 467.253 479.88 463.759 481.9C461.974 482.827 460.288 483.928 458.726 485.185C458.667 485.017 458.6 484.857 458.556 484.682C458.474 484.347 458.363 483.954 458.029 483.83C457.776 483.774 457.511 483.815 457.288 483.947C453.812 485.447 450.336 486.947 446.993 488.702C445.305 489.458 443.818 490.587 442.649 492.001C441.582 493.458 441.263 495.643 442.367 497.099C443.338 498.374 445.08 498.796 446.689 499.08C448.749 499.437 450.817 499.692 452.885 499.881C451.823 500.493 450.893 501.305 450.15 502.27C449.083 503.727 448.764 505.911 449.869 507.368C450.84 508.642 452.581 509.065 454.19 509.349C467.332 511.628 480.807 510.077 494.149 509.691C498.485 509.553 502.918 509.524 507.024 508.14C507.834 507.905 508.589 507.516 509.248 506.996C511.116 505.38 510.93 502.539 510.604 500.129L509.248 490.283C509.048 490.283 508.855 490.348 508.662 490.392C509.799 481.142 511.836 472.021 514.748 463.154C519.269 449.354 525.999 435.757 525.91 421.315C525.91 420.965 525.91 420.587 525.91 420.266C525.784 415.744 524.962 411.272 524.428 406.771C523.59 399.241 523.687 391.645 523.739 384.078C523.674 381.111 523.885 378.144 524.369 375.215C524.369 375.113 524.413 375.018 524.435 374.916L536.747 374.596C538.111 374.664 539.472 374.414 540.72 373.868C541.31 373.613 541.783 373.153 542.049 372.577C542.314 372 542.353 371.347 542.158 370.743C547.406 373.081 554.425 369.899 555.974 364.48C556.082 364.099 556.168 363.713 556.234 363.322C556.23 363.293 556.23 363.264 556.234 363.235C556.286 362.871 556.323 362.507 556.337 362.15C556.337 362.091 556.337 362.026 556.337 361.968C556.414 359.466 556.02 356.973 555.174 354.612C552.654 347.599 548.651 341.212 544.886 334.752C542.944 331.409 541.061 328.023 539.23 324.622L540.839 326.654C541.403 327.482 542.144 328.181 543.01 328.7C546.012 330.222 549.155 327.156 552.209 325.743C556.263 323.864 561.007 324.971 565.484 325.284C569.961 325.598 575.357 324.461 576.958 320.383C577.477 318.718 577.576 316.953 577.247 315.241ZM500.064 205.789C500.064 207.347 500.168 208.928 500.294 210.515C498.789 208.1 497.052 205.831 495.105 203.742L500.064 205.789Z" fill="url(#paint1_linear)"/>
<path d="M403.224 253.993C404.044 252.926 405.075 252.032 406.255 251.364C405.954 252.676 405.387 253.915 404.588 255.006C403.298 256.732 401.941 257.919 401.563 257.635C401.185 257.351 401.919 255.72 403.224 253.993Z" fill="#99D55C"/>
<path opacity="0.1" d="M403.387 254.125C403.986 253.331 404.743 252.665 405.61 252.166C405.385 253.136 404.964 254.052 404.373 254.86C403.409 256.142 402.401 257.045 402.149 256.819C401.897 256.593 402.423 255.406 403.387 254.125Z" fill="black"/>
<path d="M401.422 252.544H402.164C402.21 252.544 402.257 252.553 402.3 252.571C402.343 252.588 402.382 252.614 402.415 252.647C402.448 252.679 402.475 252.718 402.492 252.76C402.51 252.802 402.52 252.848 402.52 252.894V261.145H401.111V252.894C401.111 252.808 401.142 252.725 401.199 252.661C401.257 252.596 401.336 252.555 401.422 252.544Z" fill="#F6987E"/>
<path d="M414.342 266.971C414.342 270.062 413.092 273.026 410.868 275.211C408.644 277.396 405.628 278.624 402.482 278.624C399.337 278.624 396.321 277.396 394.096 275.211C391.872 273.026 390.623 270.062 390.623 266.971C390.623 261.633 394.277 258.472 399.266 257.547C400.327 257.355 401.404 257.26 402.482 257.263C403.226 257.262 403.968 257.306 404.706 257.395C410.191 258.065 414.342 261.284 414.342 266.971Z" fill="#FC4A4A"/>
<path opacity="0.1" d="M404.706 257.395C404.491 257.795 403.327 258.123 401.919 258.123C401 258.189 400.08 258 399.266 257.577C400.327 257.384 401.404 257.289 402.482 257.293C403.225 257.282 403.968 257.316 404.706 257.395Z" fill="black"/>
<path opacity="0.1" d="M404.462 278.347C401.316 278.347 398.3 277.119 396.076 274.934C393.851 272.749 392.602 269.785 392.602 266.695C392.602 261.451 396.123 258.312 400.97 257.329C400.399 257.372 399.829 257.445 399.266 257.547C394.277 258.472 390.623 261.633 390.623 266.971C390.623 270.062 391.872 273.026 394.096 275.211C396.321 277.396 399.337 278.624 402.482 278.624C403.378 278.625 404.271 278.525 405.143 278.325C404.914 278.34 404.706 278.347 404.462 278.347Z" fill="black"/>
<path d="M456.74 494.026C458.378 495.482 460.883 495.446 463.107 495.286L473.239 494.558C481.289 493.975 489.613 493.32 496.714 489.554C497.465 489.217 498.131 488.719 498.663 488.098C499.228 487.145 499.522 486.061 499.516 484.959C500.475 474.172 502.658 463.524 506.023 453.213C510.471 439.485 517.142 425.954 517.053 411.585C517.053 411.236 517.053 410.857 517.053 410.544C516.927 406.043 516.119 401.593 515.622 397.114C514.8 389.62 514.881 382.068 514.94 374.538C514.877 371.586 515.085 368.634 515.563 365.718C516.03 363.351 517.787 360.977 516.712 358.894C514.629 354.852 507.076 353.367 503.014 353.221C497.544 353.032 492.163 354.437 486.878 355.836C485.269 356.265 483.587 356.724 482.371 357.838C480.74 359.339 480.273 361.691 480.214 363.883C479.933 373.606 485.632 382.651 486.085 392.359C486.166 394.106 486.085 396 487.122 397.457C487.807 398.25 488.55 398.992 489.346 399.678C491.57 402.074 491.636 405.686 491.481 408.934C491.414 410.245 491.34 411.556 491.251 412.867C490.04 430.363 486.443 447.619 480.555 464.174C479.988 465.941 479.243 467.649 478.332 469.272C476.844 471.55 474.986 473.572 472.832 475.258C469.779 477.82 466.508 480.12 463.055 482.133C460.75 483.473 458.289 484.755 456.71 486.882C455.131 489.008 454.783 492.234 456.74 494.026Z" fill="#FDA8A8"/>
<path opacity="0.1" d="M456.74 494.026C458.378 495.482 460.883 495.446 463.107 495.286L473.239 494.558C481.289 493.975 489.613 493.32 496.714 489.554C497.465 489.217 498.131 488.719 498.663 488.098C499.228 487.145 499.522 486.061 499.516 484.959C500.475 474.172 502.658 463.524 506.023 453.213C510.471 439.485 517.142 425.954 517.053 411.585C517.053 411.236 517.053 410.857 517.053 410.544C516.927 406.043 516.119 401.593 515.622 397.114C514.8 389.62 514.881 382.068 514.94 374.538C514.877 371.586 515.085 368.634 515.563 365.718C516.03 363.351 517.787 360.977 516.712 358.894C514.629 354.852 507.076 353.367 503.014 353.221C497.544 353.032 492.163 354.437 486.878 355.836C485.269 356.265 483.587 356.724 482.371 357.838C480.74 359.339 480.273 361.691 480.214 363.883C479.933 373.606 485.632 382.651 486.085 392.359C486.166 394.106 486.085 396 487.122 397.457C487.807 398.25 488.55 398.992 489.346 399.678C491.57 402.074 491.636 405.686 491.481 408.934C491.414 410.245 491.34 411.556 491.251 412.867C490.04 430.363 486.443 447.619 480.555 464.174C479.988 465.941 479.243 467.649 478.332 469.272C476.844 471.55 474.986 473.572 472.832 475.258C469.779 477.82 466.508 480.12 463.055 482.133C460.75 483.473 458.289 484.755 456.71 486.882C455.131 489.008 454.783 492.234 456.74 494.026Z" fill="black"/>
<path d="M456.74 494.026C458.378 495.482 460.883 495.446 463.107 495.286L473.239 494.558C481.289 493.975 489.613 493.32 496.714 489.554C497.465 489.217 498.131 488.719 498.663 488.098C499.228 487.145 499.522 486.061 499.516 484.959C500.475 474.172 502.658 463.524 506.024 453.213C510.471 439.485 517.142 425.954 517.053 411.585C508.486 412.516 499.87 412.934 491.251 412.838C490.04 430.334 486.443 447.59 480.555 464.145C479.988 465.912 479.243 467.62 478.332 469.243C476.844 471.521 474.986 473.543 472.832 475.229C469.779 477.791 466.508 480.091 463.055 482.104C460.75 483.444 458.289 484.726 456.71 486.852C455.131 488.979 454.783 492.234 456.74 494.026Z" fill="#EEEFF3"/>
<path opacity="0.1" d="M456.74 494.026C458.378 495.482 460.883 495.446 463.107 495.286L473.239 494.558C481.289 493.975 489.613 493.32 496.714 489.554C497.465 489.217 498.131 488.719 498.663 488.098C499.228 487.145 499.522 486.061 499.516 484.959C500.475 474.172 502.658 463.524 506.024 453.213C510.471 439.485 517.142 425.954 517.053 411.585C508.486 412.516 499.87 412.934 491.251 412.838C490.04 430.334 486.443 447.59 480.555 464.145C479.988 465.912 479.243 467.62 478.332 469.243C476.844 471.521 474.986 473.543 472.832 475.229C469.779 477.791 466.508 480.091 463.055 482.104C460.75 483.444 458.289 484.726 456.71 486.852C455.131 488.979 454.783 492.234 456.74 494.026Z" fill="black"/>
<path d="M479.125 490.953C481.559 490.095 483.898 488.997 486.107 487.675L497.277 481.485C498.286 480.843 499.411 480.395 500.59 480.167L501.924 489.962C502.258 492.365 502.436 495.191 500.59 496.801C499.931 497.318 499.176 497.704 498.367 497.937C494.312 499.313 489.939 499.342 485.647 499.473C472.468 499.889 459.156 501.403 446.17 499.131C444.584 498.854 442.864 498.403 441.908 497.165C440.818 495.708 441.13 493.596 442.182 492.118C443.336 490.713 444.805 489.588 446.474 488.833C449.78 487.085 453.212 485.6 456.643 484.107C456.855 483.984 457.106 483.942 457.348 483.99C457.681 484.1 457.785 484.5 457.874 484.835C458.474 487.224 460.431 489.11 462.662 490.239C462.692 490.239 474.188 492.497 479.125 490.953Z" fill="#BBBDC8"/>
<path opacity="0.1" d="M479.125 490.953C481.559 490.095 483.898 488.997 486.107 487.675L497.277 481.485C498.286 480.843 499.411 480.395 500.59 480.167L501.924 489.962C502.258 492.365 502.436 495.191 500.59 496.801C499.931 497.318 499.176 497.704 498.367 497.937C494.312 499.313 489.939 499.342 485.647 499.473C472.468 499.889 459.156 501.403 446.17 499.131C444.584 498.854 442.864 498.403 441.908 497.165C440.818 495.708 441.13 493.596 442.182 492.118C443.336 490.713 444.805 489.588 446.474 488.833C449.78 487.085 453.212 485.6 456.643 484.107C456.855 483.984 457.106 483.942 457.348 483.99C457.681 484.1 457.785 484.5 457.874 484.835C458.474 487.224 460.431 489.11 462.662 490.239C462.692 490.239 474.188 492.497 479.125 490.953Z" fill="black"/>
<path d="M464.152 504.222C465.79 505.678 468.295 505.642 470.519 505.482L480.651 504.753C488.701 504.171 497.025 503.515 504.126 499.75C504.877 499.412 505.543 498.915 506.075 498.294C506.64 497.341 506.934 496.257 506.928 495.155C507.887 484.368 510.07 473.72 513.436 463.409C517.883 449.681 524.554 436.15 524.465 421.781C524.465 421.431 524.465 421.053 524.465 420.74C524.339 416.239 523.531 411.789 523.034 407.31C522.212 399.816 522.293 392.264 522.352 384.734C522.289 381.781 522.497 378.83 522.975 375.914C523.442 373.547 525.199 371.173 524.124 369.09C522.041 365.048 514.488 363.563 510.426 363.417C504.956 363.228 499.575 364.633 494.29 366.031C492.681 366.461 490.999 366.92 489.783 368.034C488.153 369.534 487.686 371.887 487.626 374.079C487.345 383.801 493.045 392.847 493.497 402.554C493.578 404.302 493.497 406.196 494.535 407.652C495.219 408.446 495.962 409.188 496.758 409.874C498.982 412.27 499.049 415.882 498.893 419.13C498.826 420.441 498.752 421.752 498.663 423.063C497.452 440.558 493.855 457.815 487.967 474.37C487.4 476.137 486.655 477.845 485.744 479.468C484.257 481.746 482.398 483.768 480.244 485.454C477.191 488.016 473.92 490.316 470.467 492.329C468.162 493.669 465.701 494.951 464.122 497.077C462.543 499.204 462.195 502.43 464.152 504.222Z" fill="#FDA8A8"/>
<path d="M464.152 504.222C465.79 505.678 468.295 505.642 470.519 505.482L480.652 504.753C488.701 504.171 497.025 503.515 504.126 499.75C504.878 499.412 505.543 498.915 506.075 498.294C506.64 497.341 506.934 496.257 506.928 495.155C507.887 484.368 510.07 473.72 513.436 463.409C517.883 449.681 524.554 436.15 524.465 421.781C515.898 422.712 507.282 423.13 498.663 423.034C497.452 440.529 493.855 457.786 487.967 474.341C487.4 476.108 486.655 477.816 485.744 479.439C484.257 481.717 482.398 483.739 480.244 485.425C477.191 487.987 473.92 490.287 470.467 492.3C468.162 493.64 465.701 494.922 464.122 497.048C462.543 499.175 462.195 502.43 464.152 504.222Z" fill="#EEEFF3"/>
<path d="M486.537 501.148C488.971 500.291 491.311 499.193 493.519 497.871L504.689 491.681C505.698 491.039 506.823 490.591 508.003 490.363L509.337 500.158C509.67 502.561 509.848 505.387 508.003 506.997C507.343 507.514 506.588 507.899 505.779 508.133C501.724 509.509 497.351 509.538 493.06 509.669C479.881 510.084 466.568 511.599 453.582 509.327C451.996 509.05 450.276 508.599 449.32 507.361C448.231 505.904 448.542 503.792 449.594 502.314C450.748 500.908 452.217 499.784 453.886 499.029C457.192 497.281 460.624 495.796 464.056 494.303C464.268 494.179 464.518 494.138 464.76 494.186C465.093 494.295 465.197 494.696 465.286 495.031C465.886 497.42 467.843 499.306 470.074 500.435C470.104 500.435 481.6 502.692 486.537 501.148Z" fill="#BBBDC8"/>
<path d="M449.78 208.804C453.389 204.434 453.486 198.331 453.397 192.724C453.397 190.539 453.33 188.281 453.249 186.06V186.009C453.148 181.927 452.71 177.859 451.937 173.847C451.547 171.921 451.027 170.024 450.38 168.166C450.869 168.057 451.358 167.955 451.863 167.868C459.632 166.36 467.627 166.36 475.396 167.868C476.738 168.13 480.133 168.071 482.067 168.72C482.618 168.849 483.098 169.18 483.409 169.645C483.787 170.424 483.009 172.681 482.445 174.684C482.136 175.587 481.961 176.529 481.926 177.481C482.001 178.375 482.14 179.264 482.341 180.139C482.69 181.749 483.149 183.343 483.364 184.975C483.742 187.757 483.409 190.59 483.594 193.394C483.779 196.198 484.602 199.147 486.774 200.975C474.155 202.038 461.725 204.669 449.78 208.804Z" fill="#FDA8A8"/>
<path opacity="0.1" d="M485.299 179.819C484.313 179.899 483.335 179.993 482.334 180.103C472.461 181.138 462.718 183.139 453.249 186.074V186.024L451.937 173.861C451.937 173.133 451.937 172.405 451.937 171.64C451.937 170.395 451.9 169.135 451.87 167.882C459.639 166.375 467.634 166.375 475.404 167.882C476.745 168.144 480.14 168.086 482.075 168.734C482.075 169.921 482.075 171.108 482.119 172.295C482.168 173.104 482.279 173.907 482.453 174.699C482.807 176.665 483.807 178.463 485.299 179.819Z" fill="black"/>
<path d="M466.598 183.161C481.744 183.161 494.023 171.097 494.023 156.215C494.023 141.333 481.744 129.269 466.598 129.269C451.451 129.269 439.173 141.333 439.173 156.215C439.173 171.097 451.451 183.161 466.598 183.161Z" fill="#FDA8A8"/>
<path d="M442.508 257.817C437.639 240.885 442.086 222.699 453.716 209.328C456.302 206.35 458.904 203.291 462.299 201.507C466.339 199.395 471.119 199.322 475.693 199.278C479.732 199.278 483.898 199.278 487.612 200.858C492.63 202.963 496.091 207.537 499.012 212.074C502.125 216.91 504.941 222.146 505.416 227.856C505.668 231.242 505.06 234.68 505.571 238.052C506.224 242.326 508.647 246.157 509.641 250.367C510.182 252.639 510.293 254.991 510.641 257.307C511.166 260.475 511.929 263.601 512.924 266.658C520.289 290.684 530.373 313.823 542.988 335.64C546.694 342.071 550.66 348.429 553.15 355.399C554.277 358.552 555.092 361.953 554.173 365.201C552.639 370.59 545.708 373.758 540.527 371.435C540.719 372.034 540.68 372.681 540.417 373.253C540.155 373.825 539.688 374.282 539.104 374.538C537.872 375.084 536.525 375.334 535.176 375.266L489.398 376.46C488.196 376.49 487 376.649 485.833 376.934C480.451 378.288 482.475 380.575 481.897 382.483C481.193 384.814 477.79 384.624 475.419 383.94C475.782 387.341 475.863 391.499 471.394 392.49C470.234 392.721 469.036 392.681 467.895 392.373C459.785 390.32 451.375 389.655 443.035 390.407C439.981 390.684 436.49 391.019 434.229 388.95C432.524 387.414 432.079 384.967 431.79 382.709C427.232 347.023 436.608 311.287 443.65 276.031C444.599 271.275 444.258 263.57 442.834 258.924L442.508 257.817Z" fill="#F75842"/>
<path d="M503.288 233.223C504.363 236.267 505.705 239.26 506.068 242.465C506.357 245.028 506.009 247.621 506.164 250.192C506.449 253.046 507.047 255.862 507.951 258.589C509.378 263.893 511.138 269.105 513.221 274.196C514.214 276.49 515.363 279.017 514.562 281.384C513.762 283.751 511.279 285.215 510.567 287.567C509.826 290.05 511.308 292.665 513.198 294.478C515.089 296.292 517.453 297.581 519.202 299.511C521.107 301.615 522.167 304.303 523.509 306.793C525.414 310.088 527.598 313.218 530.039 316.152L539 327.578C539.559 328.402 540.292 329.098 541.15 329.618C544.115 331.132 547.22 328.081 550.237 326.705C554.24 324.833 558.924 325.933 563.349 326.246C567.775 326.559 573.104 325.43 574.683 321.366C575.205 319.717 575.315 317.968 575.001 316.268C574.308 310.457 572.598 304.808 569.946 299.569C568.33 296.379 566.359 293.328 565.343 289.912C564.513 287.137 564.35 284.217 563.69 281.399C563.031 278.58 561.867 275.885 560.933 273.133C554.307 253.571 559.288 232.167 557.145 211.659C556.352 204.092 554.003 195.797 547.376 191.857C543.44 189.519 538.711 189.155 534.034 188.944L531.922 188.849L528.519 188.682C523.598 188.441 518.661 188.259 513.866 189.286C507.12 190.743 499.004 195.892 498.737 203.291C498.447 213.454 499.988 223.587 503.288 233.223Z" fill="#00BFA6"/>
<path opacity="0.1" d="M528.557 188.653C529.466 193.608 529.92 198.634 529.913 203.67C530.046 218.046 531.625 232.364 533.211 246.638L534.257 256.105C534.449 257.853 534.679 259.689 535.739 261.094C536.799 262.5 539.023 263.235 540.423 262.15C541.283 258.807 541.113 255.297 540.942 251.852C540.572 244.526 540.204 237.197 539.838 229.866C539.482 222.729 539.097 215.584 538.215 208.491C537.523 202.997 536.503 197.547 535.161 192.17C534.906 191.056 534.552 189.967 534.101 188.915L531.988 188.82L528.557 188.653Z" fill="black"/>
<path d="M480.125 194.814C475.582 194.173 470.823 193.845 466.509 195.396C462.388 196.889 459.097 199.955 456.132 203.182C454.11 205.261 452.439 207.643 451.181 210.239C448.653 215.948 449.639 222.532 451.181 228.577C455.383 245.225 463.729 261.284 477.123 272.273C481.201 275.528 485.541 278.451 490.102 281.013C496.032 284.428 502.154 287.567 508.714 289.541C510.545 290.094 512.494 290.56 514.37 290.167C516.245 289.774 518.016 288.281 518.076 286.394C507.328 280.459 497.692 272.79 488.123 265.158C485.5 263.17 483.044 260.978 480.778 258.603C477.383 254.853 474.989 250.323 471.698 246.485C468.733 243.04 465.027 240.134 462.803 236.194C461.407 233.504 460.473 230.605 460.038 227.615C458.941 221.52 458.734 215.045 461.194 209.343C463.655 203.641 469.296 198.958 475.596 199.06C478.828 199.111 481.904 200.371 484.884 201.601L503.637 209.379C503.407 209.277 504.712 206.08 504.652 205.636C504.474 204.245 504.222 204.223 503.17 203.167C501.376 201.405 498.589 200.167 496.314 199.14C491.156 196.943 485.704 195.486 480.125 194.814Z" fill="#00BFA6"/>
<path d="M442.797 151.117C448.148 149.949 453.099 147.44 457.17 143.834L453.249 164.051C457.155 162.29 460.943 160.285 464.589 158.05C465.116 167.3 464.352 176.76 460.883 185.368C457.414 193.976 451.018 201.681 442.434 205.505C450.054 206.758 456.895 201.383 463.678 197.749C468.407 195.222 476.486 197.822 481.66 196.292C486.048 195.025 490.554 193.918 494.512 191.653C501.865 187.436 503.533 175.121 505.023 166.892C506.513 158.662 505.156 150.141 502.681 142.13C501.857 139.293 500.742 136.546 499.352 133.93C497.443 130.495 494.829 127.486 491.676 125.094C488.523 122.703 484.9 120.979 481.034 120.033C477.169 119.087 473.146 118.94 469.219 119.599C465.293 120.259 461.548 121.711 458.222 123.865C451.388 128.286 445.051 134.789 439.833 140.958C439.091 141.81 436.03 144.84 437.046 146.114C438.283 147.658 445.547 143.259 446.778 142.662C446.422 143.98 444.213 150.775 442.797 151.117Z" fill="#FFD566"/>
<g opacity="0.1">
<path opacity="0.1" d="M473.64 386.663C472.48 386.894 471.282 386.854 470.141 386.547C462.03 384.494 453.621 383.829 445.28 384.581C442.227 384.857 438.735 385.192 436.475 383.124C434.77 381.587 434.325 379.14 434.036 376.883C429.478 341.197 438.854 305.461 445.896 270.205C446.844 265.449 446.503 257.744 445.08 253.098L444.747 251.969C442.003 242.341 442.165 232.137 445.214 222.598C440.157 233.667 439.2 246.127 442.508 257.817L442.842 258.946C444.265 263.592 444.606 271.326 443.657 276.053C436.638 311.309 427.261 347.067 431.798 382.731C432.087 384.988 432.539 387.435 434.236 388.972C436.46 391.019 439.988 390.684 443.042 390.429C451.382 389.677 459.792 390.342 467.903 392.395C469.043 392.702 470.242 392.742 471.401 392.512C475.048 391.703 475.663 388.783 475.574 385.891C474.982 386.262 474.327 386.523 473.64 386.663Z" fill="black"/>
<path opacity="0.1" d="M542.766 365.609C542.957 366.208 542.918 366.855 542.656 367.427C542.393 367.999 541.926 368.456 541.343 368.712C540.111 369.258 538.764 369.508 537.414 369.44L491.636 370.634C490.434 370.664 489.238 370.823 488.071 371.108C482.69 372.462 484.713 374.749 484.135 376.657C483.431 378.987 480.029 378.798 477.657 378.114C477.879 380.189 477.991 382.541 477.034 384.289C479.117 384.595 481.356 384.326 481.912 382.483C482.467 380.641 480.466 378.288 485.847 376.934C487.015 376.649 488.21 376.49 489.413 376.46L535.161 375.266C536.511 375.334 537.857 375.084 539.089 374.538C539.673 374.282 540.14 373.825 540.403 373.253C540.665 372.681 540.704 372.034 540.512 371.435C545.701 373.758 552.624 370.59 554.158 365.201C554.389 364.385 554.519 363.543 554.544 362.696C551.772 365.959 546.753 367.415 542.766 365.609Z" fill="black"/>
</g>
<path d="M481.356 213.429C485.293 221.654 488.774 230.083 491.785 238.678C494.216 245.604 496.358 252.879 495.55 260.162C494.742 267.445 490.361 274.8 483.246 277.094C480.222 278.07 476.982 278.078 473.803 278.15C466.186 278.326 458.586 278.929 451.04 279.957C447.528 280.527 443.987 280.914 440.433 281.114C435.407 281.275 430.382 280.503 425.371 280.903C417.262 281.551 409.561 285.273 401.423 285.273C400.43 285.333 399.437 285.153 398.532 284.749C397.049 283.962 396.39 282.258 395.886 280.685C394.751 277.131 393.862 273.052 395.782 269.841C398.146 265.886 403.52 265.092 408.182 264.743C418.678 264.015 429.186 263.505 439.706 263.213C448.683 262.966 458.407 262.631 465.368 257.052C465.837 256.722 466.221 256.288 466.487 255.785C466.75 254.932 466.718 254.018 466.398 253.185C463.639 242.594 462.456 231.665 462.884 220.74C462.837 219.76 463.095 218.79 463.626 217.958C464.256 217.292 465.074 216.825 465.975 216.618C472.189 214.659 478.843 214.477 485.158 216.094" fill="#FDA8A8"/>
<path d="M462.699 220.733C461.624 221.097 460.687 221.775 460.016 222.678C460.312 219.641 459.912 216.575 459.971 213.516C460.031 210.457 460.609 207.267 462.573 204.893C465.071 201.864 469.318 200.778 473.291 200.676C479.058 200.523 485.025 202.169 489.25 206.029C491.969 208.531 493.735 211.872 494.253 215.497C494.386 216.495 494.831 220.238 493.771 220.879C492.845 221.447 489.324 219.488 488.19 219.175C479.769 216.743 470.748 217.295 462.699 220.733Z" fill="#F75842"/>
<path opacity="0.1" d="M350.597 48.7945C353.463 48.7945 355.786 46.5121 355.786 43.6966C355.786 40.8811 353.463 38.5986 350.597 38.5986C347.731 38.5986 345.409 40.8811 345.409 43.6966C345.409 46.5121 347.731 48.7945 350.597 48.7945Z" fill="#00BFA6"/>
<path opacity="0.1" d="M385.434 147.112C388.3 147.112 390.623 144.829 390.623 142.014C390.623 139.198 388.3 136.916 385.434 136.916C382.569 136.916 380.246 139.198 380.246 142.014C380.246 144.829 382.569 147.112 385.434 147.112Z" fill="#00BFA6"/>
<path opacity="0.1" d="M286.852 53.8924C289.718 53.8924 292.041 51.61 292.041 48.7945C292.041 45.979 289.718 43.6966 286.852 43.6966C283.987 43.6966 281.664 45.979 281.664 48.7945C281.664 51.61 283.987 53.8924 286.852 53.8924Z" fill="#00BFA6"/>
<path opacity="0.1" d="M127.49 294.223C134.858 294.223 140.832 288.354 140.832 281.114C140.832 273.875 134.858 268.006 127.49 268.006C120.121 268.006 114.148 273.875 114.148 281.114C114.148 288.354 120.121 294.223 127.49 294.223Z" fill="#00BFA6"/>
<path opacity="0.1" d="M664.874 77.9255C667.74 77.9255 670.063 75.6431 670.063 72.8276C670.063 70.0121 667.74 67.7297 664.874 67.7297C662.009 67.7297 659.686 70.0121 659.686 72.8276C659.686 75.6431 662.009 77.9255 664.874 77.9255Z" fill="#00BFA6"/>
<path opacity="0.1" d="M670.804 158.764C680.219 158.764 687.852 151.265 687.852 142.014C687.852 132.763 680.219 125.263 670.804 125.263C661.389 125.263 653.756 132.763 653.756 142.014C653.756 151.265 661.389 158.764 670.804 158.764Z" fill="#00BFA6"/>
<path opacity="0.1" d="M698.229 99.7738C701.095 99.7738 703.418 97.4914 703.418 94.6759C703.418 91.8604 701.095 89.5779 698.229 89.5779C695.364 89.5779 693.041 91.8604 693.041 94.6759C693.041 97.4914 695.364 99.7738 698.229 99.7738Z" fill="#00BFA6"/>
<path opacity="0.1" d="M652.274 192.993C655.139 192.993 657.462 190.711 657.462 187.895C657.462 185.08 655.139 182.797 652.274 182.797C649.408 182.797 647.085 185.08 647.085 187.895C647.085 190.711 649.408 192.993 652.274 192.993Z" fill="#00BFA6"/>
<path opacity="0.1" d="M340.22 89.5779C343.086 89.5779 345.409 87.2955 345.409 84.48C345.409 81.6645 343.086 79.3821 340.22 79.3821C337.354 79.3821 335.031 81.6645 335.031 84.48C335.031 87.2955 337.354 89.5779 340.22 89.5779Z" fill="#00BFA6"/>
<path opacity="0.1" d="M146.02 347.388C148.886 347.388 151.209 345.105 151.209 342.29C151.209 339.474 148.886 337.192 146.02 337.192C143.155 337.192 140.832 339.474 140.832 342.29C140.832 345.105 143.155 347.388 146.02 347.388Z" fill="#00BFA6"/>
<path opacity="0.1" d="M137.867 230.863C140.732 230.863 143.055 228.581 143.055 225.766C143.055 222.95 140.732 220.668 137.867 220.668C135.001 220.668 132.678 222.95 132.678 225.766C132.678 228.581 135.001 230.863 137.867 230.863Z" fill="#00BFA6"/>
<path opacity="0.1" d="M422.495 43.6966C425.361 43.6966 427.684 41.4141 427.684 38.5986C427.684 35.7831 425.361 33.5007 422.495 33.5007C419.63 33.5007 417.307 35.7831 417.307 38.5986C417.307 41.4141 419.63 43.6966 422.495 43.6966Z" fill="#00BFA6"/>
<path opacity="0.1" d="M439.543 89.5779C442.409 89.5779 444.732 87.2955 444.732 84.48C444.732 81.6645 442.409 79.3821 439.543 79.3821C436.678 79.3821 434.355 81.6645 434.355 84.48C434.355 87.2955 436.678 89.5779 439.543 89.5779Z" fill="#00BFA6"/>
<defs>
<linearGradient id="paint0_linear" x1="285.044" y1="513.165" x2="285.044" y2="119.437" gradientUnits="userSpaceOnUse">
<stop stop-color="#808080" stop-opacity="0.25"/>
<stop offset="0.54" stop-color="#808080" stop-opacity="0.12"/>
<stop offset="1" stop-color="#808080" stop-opacity="0.1"/>
</linearGradient>
<linearGradient id="paint1_linear" x1="133403" y1="310292" x2="133403" y2="97865.4" gradientUnits="userSpaceOnUse">
<stop stop-color="#808080" stop-opacity="0.25"/>
<stop offset="0.54" stop-color="#808080" stop-opacity="0.12"/>
<stop offset="1" stop-color="#808080" stop-opacity="0.1"/>
</linearGradient>
</defs>
</svg>
